<?xml version="1.0" encoding="UTF-8"?>
<svg id="a" fill="#eee" opacity=".1"  data-name="Layer 1" xmlns="http://www.w3.org/2000/svg" viewBox="0 0 704.073 452.596">
  <defs>
    <style>
      .b {
        fill: #f6f5f5;
      }

      .c {
        fill: #f8f7f7;
      }

      .d {
        fill: #fcfcfc;
      }

      .e {
        fill: #edecec;
      }

      .f {
        fill: #fff;
      }

      .g {
        fill: #fbfbfb;
      }

      .h {
        fill: #fdfdfd;
      }

      .i {
        fill: #b1adad;
      }

      .j {
        fill: #c7c5c5;
      }

      .k {
        fill: #474544;
      }

      .l {
        fill: #262424;
      }

      .m {
        fill: #3b3939;
      }

      .n {
        fill: #272525;
      }

      .o {
        fill: #585655;
      }

      .p {
        fill: #575454;
      }

      .q {
        fill: #7b7878;
      }  
      .b,.c,.d,.e,.f,.g, .h,.i,.j{
        fill:#222
      }
      .j,
      .k,
      .l,
      .m,
      .n,
      .o,
      .p,
      .q {
        fill: #fff;
      }
    </style>
  </defs>
  <path class="d" d="M185.329,196.044c-.505-.454-1.01-.908-1.512-1.362,.074-.243,.146-.487,.218-.731,1.791-2.249-.637-3.312-1.398-4.809-.905-1.781-3.468-2.205-3.808-4.5,6.836-6.123,12.981-12.874,17.647-20.792,4.278-7.259,7.711-14.907,7.878-23.569,.087-4.507-.133-9.015-.834-13.474-.456-2.9,.993-3.594,3.42-3.116,2.15,.424,4.261,1.045,6.39,1.576,8.629,2.155,17.205,4.906,26.26,3.956,9.233-.968,18.427-.415,27.656-.088,13.211,.469,25.407,3.994,36.591,11.001,7.393,4.632,15.151,8.577,23.052,12.23,8.08,3.735,16.596,5.58,25.542,5.959,13.236,.56,26.082-1.767,38.985-4.16,8.876-1.646,17.353-4.89,26.303-6.151,16.275-2.294,32.695-1.428,49.039-2.243,33.475-1.67,66.572,2.067,99.481,7.73,17.738,3.052,35.385,6.622,53.1,9.811,7.465,1.344,14.027,3.994,18.776,10.276,1.697,2.245,3.865,4.135,5.828,6.178,9.375,9.755,18.471,19.788,29.649,27.637,3.59,2.521,6.888,5.492,9.728,8.904,4.595,5.521,3.031,10.171-4.019,12.073-1.36,.367-2.716,.463-4.049,.301-4.258-.52-8.591-.955-12.575-2.563-2.694-1.087-5.769-1.709-7.83-3.992-5.716-6.335-12.089-11.94-18.836-17.126-8.551-6.572-17.564-12.208-28.544-13.834-6.213-.92-12.477-1.687-18.581-3.111-24.566-5.735-49.623-7.785-74.625-10.243-12.824-1.261-25.678-2.218-38.511-3.394-10.608-.972-21.19-.757-31.642,1.225-14.377,2.727-28.692,5.778-43.023,8.742-11.955,2.473-23.848,2.636-35.805-.179-16.009-3.769-31.875-7.949-47.029-14.47-.583-.453-1.169-.899-1.97-.842-1.006-.493-2.001-1.008-3.021-1.471-.54-.245-1.202-.595-1.614,.124-.51,.892,.17,1.27,.864,1.561,1.226,.515,2.457,1.016,3.687,1.523,.593,.426,1.173,.883,1.967,.837,10.461,4.907,21.402,8.433,32.557,11.358,9.605,2.519,19.154,5.255,29.178,5.691,13.568,.59,26.603-2.617,39.692-5.413,10.02-2.141,19.967-4.666,30.153-5.913,14.384-1.762,28.681,.03,42.978,1.365,14.81,1.382,29.611,2.86,44.422,4.229,10.533,.974,21.024,2.287,31.425,4.178,10.499,1.909,20.821,4.716,31.436,6.082,9.332,1.2,18.218,3.714,26.152,9.125,9.668,6.593,18.689,13.914,26.419,22.711,6.604,7.516,13.915,14.225,21.663,20.543,5.354,4.367,11.442,7.852,16.04,13.136,3.321,3.817,2.984,5.471-1.609,7.849-.554,.287-1.197,.408-1.739,.713-3.052,1.717-6.134,.346-9.141-.025-5.847-.721-11.561-1.898-15.953-6.436-13.19-13.628-29.74-22.431-45.975-31.63-10.089-5.716-20.887-9.695-32.346-11.809-7.726-1.425-15.41-3.073-23.125-4.554-15.754-3.024-31.521-6.051-47.619-6.461-19.416-.495-38.829-.035-58.231,.745-6.179,.248-12.321,.937-18.439,1.954-14.799,2.461-29.174,6.848-43.93,9.493-14.862,2.663-29.733,3.438-44.752,1.184-15.834-2.376-30.016-9.104-44.041-16.243-1.767-.9-14.032-3.651-11.687-1.671-.762,.988-1.574,.203-2.25-.048-3.044-1.13-6.12-2.214-9.05-3.6-6.439-3.045-12.578-6.867-19.239-9.262-9.2-3.308-17.438-8.098-25.356-13.631-2.081-1.936-4.297-3.627-7.016-4.407l-.437,.704c2.212,1.501,4.423,3.001,6.635,4.502,2.64,2.408,5.54,4.466,8.674,6.165,12.874,6.977,26.565,12.226,39.696,18.669,3.81,1.87,7.875,3.385,12.16,4.027,4.288,1.728,8.604,3.538,12.676,5.6,17.393,8.805,35.541,14.271,55.143,14.589,15.441,.25,30.468-2.463,45.387-6.028,12.333-2.947,24.639-6.031,37.295-7.304,10.867-1.093,21.794-1.06,32.693-1.504,16.473-.671,32.97-.537,49.378,1.138,13.661,1.394,27.12,4.245,40.579,6.938,11.593,2.32,23.352,3.99,34.349,8.741,12.085,5.221,23.097,12.365,34.439,18.918,5.278,3.049,10.134,6.721,14.725,10.744,9.074,7.951,18.074,15.992,27.32,23.739,5.597,4.689,10.82,9.927,17.715,12.929,2.937,1.279,4.118,5.565,3.224,9.781-.683,3.221-2.931,5.303-6.234,5.751-5.9,.801-11.21-1.218-16.313-3.72-9.243-4.532-17.97-9.942-26.186-16.16-2.009-1.521-3.998-3.115-6.356-4.044-12.641-4.98-24.541-11.392-35.605-19.211-14.172-10.016-30.07-14.398-47.095-15.563-7.321-.501-14.677-.669-21.963-1.475-15.76-1.743-31.596-1.896-47.401-2.697-.631-.023-1.261-.045-1.892-.068-4.618-.172-9.236-.343-13.854-.515-.422-.012-.844-.023-1.266-.035l-2.516-.053c-1.05-.016-2.1-.031-3.151-.047-5.04-.215-10.079-.283-15.117,.051-.421,.028-.842,.056-1.263,.085-3.359,.383-6.717,.766-10.076,1.148-.458,.062-.916,.123-1.374,.185-1.222,.156-2.443,.313-3.665,.469l-.632,.075c-1.049,.167-2.099,.333-3.148,.5-4.35,.584-8.687,1.3-13.052,1.727-13.765,1.345-27.446,3.295-40.998,6.008-18.756,3.754-36.918,2.072-54.391-5.649-9.864-4.359-19.983-7.97-30.178-11.411-.694-.234-1.918-1.259-2.304,.253-.281,1.102,1.039,1.094,1.737,1.364,5.134,1.979,10.18,4.296,15.462,5.757,6.594,1.823,10.701,5.983,13.724,11.802,.794,1.528,1.088,3.11,1.457,4.656,1.438,6.03,3.831,12.054,1.061,18.343-.203,.461-.488,.932-.52,1.413-.253,3.861-3.786,5.907-5.056,9.157-2.794,7.155-6.165,14-10.712,20.197-8.705,11.863-10.693,25.648-10.631,39.686,.043,9.811,1.729,19.607,2.268,29.453,.575,10.519,6.029,18.062,15.204,23.031,2.683,1.453,5.463,2.7,8.398,3.522,16.8,4.707,33.876,7.874,51.328,8.655,11.236,.502,22.321,2.113,33.372,4.014,4.516,.777,8.68,2.441,11.37,6.572,2.624,4.03,1.623,7.378-2.937,8.855-4.592,1.487-9.417,1.296-14.028,.514-20.869-3.538-42.019-5.138-62.804-9.212-14.505-2.844-28.817-6.455-42.806-11.256-7.09-2.433-10.597-7.771-11.806-14.946-2.261-13.41-4.483-26.828-6.968-40.198-.979-5.269-2.159-10.456-1.601-15.866,.43-4.168,.694-8.354,1.127-12.521,.75-7.216,1.816-14.362,5.693-20.721,4.483-7.352,9.807-14.085,15.487-20.525,5.225-5.924,4.47-14.316-1.87-19.094-3.397-2.56-7.262-4.101-11.211-5.57-19.109-7.106-38.798-12.619-56.647-23.04-18.917-11.046-34.729-24.831-44.798-44.584-.494-.97-.804-2.278-2.371-2.089Zm100.016,40.01l1.233,.493c1.999,.793,3.986,1.614,6.003,2.358,.51,.188,1.257,.515,1.518-.367,.244-.825-.45-1.027-1.026-1.233-2.129-.762-4.264-1.51-6.397-2.264-.343-.376-.71-.696-1.277-.557-1.139-.318-2.557-2.192-3.317-.486-.568,1.274,1.695,1.268,2.667,1.875,.17,.106,.395,.123,.595,.182Zm-5.315-80.317c-1.261-.726-2.614-1.164-4.067-1.287-4.933-1.518-9.865-3.037-14.798-4.555-1.789-.953-3.729-1.402-5.71-1.716-.725-.205-1.451-.41-2.176-.615-1.15-.333-2.299-.666-3.449-.998-2.042-1.152-4.389-1.158-6.58-1.751-1.981-.673-3.963-1.347-5.944-2.02,1.412,1.396,2.774,2.741,4.778,2.756,2.204,.888,4.43,1.7,6.82,1.931,1.273,1.093,2.944,.778,4.394,1.245l1.465,.46c1.724,.743,3.438,1.521,5.337,1.721,5.204,1.882,10.433,3.684,15.802,5.051,1.188,.665,2.442,1.111,3.821,1.135,1.16,.42,2.31,.874,3.485,1.246,.545,.173,1.264,.464,1.485-.441,.204-.838-.495-1.052-1.071-1.222-1.186-.351-2.393-.632-3.591-.941Zm13.669,4.171c-2.461-.813-4.916-1.644-7.387-2.425-.563-.178-1.268-.396-1.436,.565-.12,.687,.378,.912,.876,1.057,2.092,.608,4.192,1.186,6.29,1.775,.554,.626,1.324,.657,2.072,.748,5.113,2.05,10.221,4.115,15.347,6.134,.671,.264,1.59,1.087,2.079-.148,.379-.957-.573-1.187-1.215-1.454-4.798-1.998-9.486-4.288-14.576-5.514-.549-.62-1.298-.681-2.05-.736Zm-40.429,58.2c8.129,5.311,16.479,10.252,25.003,14.902,.564,.308,1.391,1.059,1.912,.16,.667-1.153-.591-1.36-1.234-1.703-9.423-5.019-18.479-10.65-27.477-16.377-2.606-3.177-6.564-4.343-9.827-6.544-6.86-4.627-13.983-8.849-21.292-12.733-2.795-1.485-5.736-2.815-9.159-1.831,2.783,1.035,5.751,1.573,8.294,3.098,11.027,6.61,22.885,11.907,32.633,20.55,.293,.26,.761,.324,1.148,.479Zm69.284,51.278c-.115-2.935-1.497-4.848-3.173-6.517-.968-.965-2.605-2.801-3.498-1.737-1.263,1.503,1.315,1.746,2.128,2.51,1.717,1.612,2.288,4.106,4.543,5.744Z"/>
  <path class="l" d="M289.776,203.177c-2.345-1.981,11.717,.711,13.484,1.61,14.025,7.14,28.325,12.42,44.16,14.796,15.019,2.254,29.89,1.479,44.752-1.184,14.756-2.644,29.131-7.032,43.93-9.493,6.118-1.017,12.26-1.706,18.439-1.954,19.402-.78,38.814-1.24,58.231-.745,16.098,.41,31.865,3.436,47.619,6.461,7.716,1.481,15.4,3.129,23.125,4.554,11.459,2.114,22.257,6.093,32.346,11.809,16.235,9.199,32.785,18.002,45.975,31.63,4.392,4.538,10.106,5.715,15.953,6.436,3.007,.371,6.09,1.742,9.141,.025,.542-.305,1.184-.426,1.739-.713,4.593-2.378,4.93-4.032,1.609-7.849-4.598-5.285-10.686-8.77-16.04-13.136-7.747-6.318-15.059-13.027-21.663-20.543-7.73-8.797-16.752-16.118-26.419-22.711-7.934-5.411-16.821-7.924-26.152-9.125-10.615-1.366-20.937-4.173-31.436-6.082-10.402-1.891-20.892-3.205-31.425-4.178-14.811-1.369-29.612-2.847-44.422-4.229-14.297-1.334-28.593-3.127-42.978-1.365-10.186,1.248-20.133,3.773-30.153,5.913-13.089,2.796-26.125,6.003-39.692,5.413-10.023-.436-19.572-3.172-29.178-5.691-11.154-2.926-22.096-6.451-32.557-11.358,.029-.578,.059-1.155,.088-1.733,15.154,6.521,31.019,10.7,47.029,14.47,11.957,2.815,23.85,2.652,35.805,.179,14.331-2.964,28.646-6.015,43.023-8.742,10.452-1.982,21.033-2.197,31.642-1.225,12.833,1.176,25.687,2.133,38.511,3.394,25.003,2.458,50.059,4.508,74.625,10.243,6.104,1.425,12.368,2.192,18.581,3.111,10.981,1.625,19.993,7.261,28.544,13.834,6.747,5.186,13.121,10.791,18.836,17.126,2.061,2.284,5.136,2.905,7.83,3.992,3.984,1.608,8.316,2.043,12.575,2.563,1.333,.163,2.689,.066,4.049-.301,7.05-1.901,8.614-6.552,4.019-12.073-2.84-3.412-6.138-6.383-9.728-8.904-11.178-7.849-20.274-17.882-29.649-27.637-1.963-2.043-4.131-3.933-5.828-6.178-4.749-6.283-11.311-8.932-18.776-10.276-17.715-3.189-35.363-6.759-53.1-9.811-32.909-5.663-66.006-9.4-99.481-7.73-16.344,.815-32.764-.051-49.039,2.243-8.951,1.262-17.427,4.505-26.303,6.151-12.903,2.393-25.749,4.72-38.985,4.16-8.946-.378-17.462-2.223-25.542-5.959-7.901-3.653-15.66-7.598-23.052-12.23-11.184-7.006-23.38-10.532-36.591-11.001-9.229-.327-18.423-.881-27.656,.088-9.055,.95-17.63-1.801-26.26-3.956-2.129-.532-4.24-1.153-6.39-1.576-2.428-.479-3.876,.215-3.42,3.116,.7,4.459,.92,8.967,.834,13.474-.166,8.662-3.6,16.31-7.878,23.569-4.666,7.918-10.811,14.67-17.647,20.792-.88,.277-2.25,3.63-2.539,3.923-1.26-.712-2.112,.076-3.088,.733-15.45,10.406-31.444,9.427-47.414,1.657-7.752-3.772-11.962-10.945-14.809-18.829-.662-1.832-1.438-2.419-3.426-2.676-10.321-1.334-19.572-5.299-27.466-12.167-10.097-8.784-18.369-19.249-27.06-29.342-13.211-15.341-26.24-30.827-38.15-47.205C8.349,71.761,3.629,61.813,.938,51.031-3.111,34.81,6.352,14.43,21.558,6.476,40.814-3.596,59.825-1.551,77.262,10.055c17.917,11.926,34.29,25.937,47.461,43.288,4.014,5.288,7.164,10.984,9.654,17.092-.182,.601-.133,1.136,.43,1.527,.022,.843,.045,1.686,.068,2.53l-1.259,.005c-.032-.366-.064-.733-.096-1.099,.097-1.096,.532-2.332-1.119-2.705-2.921-5.645-5.964-11.159-9.921-16.23-13.253-16.981-29.62-30.518-47.311-42.415C63.503,4.203,50.223,1.295,36.182,4.066,16.451,7.961,4.916,21.881,3.122,41.123c-.66,1.48-.499,2.947,.069,4.408-.117,1.37,.104,2.684,.44,4.022,2.927,11.651,8.435,22.032,15.587,31.582,13.942,18.616,29.136,36.211,44.218,53.894,5.768,6.763,11.499,13.575,18.385,19.28,1.647,1.876,3.559,3.413,5.798,4.532,6.05,4.261,12.844,6.636,20.07,7.918,1.467,.57,2.087,.124,1.756-1.463,1.25-1.576,1.688,.08,2.41,.606,.382,1.434,1.903,1.823,2.667,2.907,2.712,2.45,6.12,2.249,9.427,2.529,11.173,.947,20.116-3.321,27.382-11.578,.935-.717,1.699-1.578,2.219-2.643,1.758-1.889,3.146-4.032,4.323-6.319,.237-.414,.475-.828,.712-1.241,4.316-6.668,7.059-14.009,8.851-21.677,1.743-7.459,.95-14.552-4.282-20.643-.809-1.577-2.079-2.693-3.578-3.582-.925-.635-1.836-1.291-2.777-1.901-3.006-1.948-6.636-.976-9.827-2.075-.523-1.573-2.004-2.669-2.193-4.408,3.435-.893,2.682-3.499,2.416-5.905,.305-.342,.61-.684,.914-1.026,.155,.09,.192,.214,.111,.374,.455,1.264-.52,3.198,1.702,3.636,5.037-1.712,10.089-2.319,15.179-.208,.607,.654,1.314,1.128,2.227,1.231,4.457,4.076,6.642,9.211,7.329,15.147,.823,7.105,.658,14.169-.046,21.276-1.949,19.688-12.711,33.843-28.085,45.124-2.666,1.957-5.839,2.801-9.154,2.855-.772,.013-2.406,.535-1.602-1.422,4.487-.014,8.384-1.678,11.877-4.356,8.997-6.897,15.922-15.523,20.555-25.826,4.867-10.823,4.845-22.38,4.146-33.938-.215-3.551-.822-7.071-2.274-10.381-2.472-5.637-7.378-8.867-12.801-8.218-2.589,.31-5.163,.845-7.694,1.478-.762,.191-2.468-.414-2.126,1.421,.262,1.406,1.141,1.998,2.71,1.822,3.838-.43,7.236,.829,10.259,3.138,7.923,6.052,10.788,14.201,9.449,23.849-1.571,11.325-6.312,21.453-12.744,30.758-6.992,10.116-16.093,16.998-29.02,17.326-.856-.11-1.316,.212-1.235,1.128-2.934-1.012-5.915-1.663-9.043-1.191-.008-.14-.016-.28-.025-.419l-.266,.039,.317,.363c.532,1.978,2.19,3.03,3.64,4.158,8.196,6.375,16.955,8.895,26.764,3.646,7.719-4.13,14.114-9.665,18.725-17.196,2.467-4.03,4.467-8.272,6.326-12.598,.256-.597,.485-1.653,1.384-1.314,.923,.349,.105,1.286,.214,1.95-.534,1.247-1.101,2.481-1.598,3.743-4.488,11.396-11.892,20.309-22.556,26.429-3.845,2.207-7.911,3.745-12.427,3.842-8.194,.176-14.577-3.784-20.469-8.888-1.139-1.847-2.278-3.693-3.417-5.54,.127,2.484,1.112,4.533,2.601,6.353,4.569,8.329,11.929,12.513,20.951,14.57,12.851,2.929,24.781,1.565,35.384-6.793,5.953-4.693,11.16-10.16,15.849-16.1,9.514-12.05,15.138-25.317,12.32-41.055-.527-2.944-.265-6.063-2.094-8.757-5.031-7.411-11.096-13.933-17.276-20.359-1.595-1.658-3.626-2.743-5.706-3.707-.161-1.003-1.615-.828-1.718-1.884,1.354-1.3,2.109,.48,2.849,.841,5.385,2.623,10.126,5.937,13.73,11.062,3.42,4.863,7.356,9.403,10.911,14.206,.443,.599,.9,1.057,1.751,1.141,8.466,.833,16.466,3.897,24.839,5.215,4.605,.725,9.156,.559,13.767,.019,15.092-1.768,30.122-1.853,44.931,2.238,.807,.223,1.638,.411,2.397,.751,3.754,1.682,7.48,2.391,11.763,2.016,6.372-.559,12.356,1.782,18.06,4.603,8.487,4.197,17.701,6.138,26.937,6.885,7.745,.626,15.441-1.72,22.462-5.184,20.957-10.338,43.137-17.356,65.331-24.314,12.749-3.997,25.884-4.882,39.202-3.791,17.867,1.463,35.765,2.568,53.623,4.132,14.339,1.256,28.72,1.779,43.068,1.662,25.331-.206,46.337,9.699,65.256,25.565,6.992,5.864,12.974,12.464,17.872,20.14,5.076,7.954,10.166,15.911,16.615,22.88,2.153,2.327,3.757,5.055,5.086,7.911,1.619,3.481,2.157,7.086-.131,10.48-1.046,1.551,.053,2.035,.884,2.739,3.281,2.78,6.659,5.457,9.318,8.888,2.439,3.147,4.751,6.514,2.748,10.605-2.217,4.529-6.268,6.625-11.267,6.718-4.225,.078-8.295-.998-12.38-1.924-.655-.149-1.477-.876-2.003-.051-.625,.981,.434,1.483,.981,2.015,7.004,6.821,14.711,12.807,22.475,18.714,3.279,2.495,6.287,5.231,8.812,8.482,2.339,3.011,2.017,5.308-.578,8.074-3.498,3.73-7.436,4.894-12.438,3.51-3.067-.848-6.351-.911-9.541-1.327-.158,1.221,.79,1.533,1.369,2.056,5.992,5.415,11.932,10.89,18.065,16.141,1.45,1.242,2.761,4.192,5.619,1.897,.116-.093,.702,.366,1.05,.597,5.255,3.499,7.393,11.059,4.752,16.792-2.238,4.859-7.365,7.089-13.905,6.063-4.488-.704-8.783-2.065-12.847-4.053-9.529-4.664-18.844-9.699-26.963-16.648-4.336-3.711-9.105-6.661-14.418-8.798-11.354-4.567-21.591-11.218-31.7-17.93-10.955-7.273-23.089-10.312-35.797-11.472-24.535-2.241-49.115-3.877-73.754-4.613-4.914-.147-9.845-.361-14.763-.647-.058-1.086-1.624-1.488-1.257-2.766,4.618,.172,9.236,.343,13.854,.515,.577,1.526,1.207,1.553,1.892,.068,15.805,.801,31.641,.954,47.401,2.697,7.286,.806,14.642,.974,21.963,1.475,17.024,1.165,32.923,5.547,47.095,15.563,11.064,7.819,22.964,14.231,35.605,19.211,2.358,.929,4.346,2.523,6.356,4.044,8.216,6.217,16.943,11.628,26.186,16.16,5.102,2.502,10.413,4.521,16.313,3.72,3.303-.449,5.55-2.53,6.234-5.751,.894-4.216-.287-8.503-3.224-9.781-6.896-3.002-12.119-8.24-17.715-12.929-9.246-7.747-18.246-15.788-27.32-23.739-4.591-4.023-9.447-7.695-14.725-10.744-11.342-6.552-22.354-13.696-34.439-18.918-10.997-4.751-22.756-6.421-34.349-8.741-13.459-2.694-26.918-5.544-40.579-6.938-16.408-1.675-32.905-1.809-49.378-1.138-10.899,.444-21.826,.412-32.693,1.504-12.656,1.272-24.963,4.357-37.295,7.304-14.919,3.565-29.946,6.279-45.387,6.028-19.602-.318-37.751-5.783-55.143-14.589-4.072-2.062-8.388-3.872-12.676-5.6-.423-2.078-3.923-1.23-5.734-1.61Zm13.63-67.858c.303,.23,.589,.486,.91,.687,8.817,5.518,17.996,10.353,27.586,14.379,4.067,1.708,8.309,2.898,12.701,3.475,13.581,1.785,27.009,.543,40.327-2.22,14.792-3.068,29.479-6.53,44.674-7.385,15.088-.849,30.186-1.204,45.28-1.642,18.985-.55,37.95-.057,56.854,2.282,14.443,1.788,28.796,4.151,43.2,6.183,9.014,1.272,17.873,3.448,26.883,4.846,9.502,1.475,19.045,2.968,28.232,6.018,1.916,.636,4.089,1.485,4.825,3.177,.909,2.087,2.399,3.338,3.907,4.767,2.891,2.74,5.744,5.522,8.555,8.345,7.395,7.428,14.059,15.603,22.495,21.961,.787,.593,1.471,1.835,2.657,1.288,1.243-.573,1.001-1.96,1.082-3.08,.353-4.857-2.424-8.434-5.348-11.68-6.136-6.811-11.633-14.082-16.372-21.89-6.264-10.32-14.688-18.428-24.227-25.699-16.055-12.237-33.589-19.748-54.13-20.014-15.095-.196-30.209-.414-45.284-1.732-17.757-1.552-35.548-2.703-53.316-4.131-13.829-1.112-27.479-.38-40.741,3.943-21.115,6.883-42.4,13.297-62.374,23.292-7.949,3.978-16.597,6.65-25.469,5.976-9.906-.752-19.642-3.155-28.68-7.672-4.42-2.209-9.073-3.641-14.225-3.476Zm-.456-.694c-.067-.064-.135-.178-.207-.181-.072-.003-.147,.107-.221,.167l.306,.21,.122-.197Zm358.74,94.223c-.084,.084-.154,.154-.224,.224,.14,.07,.275,.164,.423,.197,.052,.012,.137-.127,.207-.197l-.406-.224Z"/>
  <path class="n" d="M173.38,185.711c1.567-.19,13.825,11.451,14.319,12.421,10.069,19.753,25.881,33.538,44.798,44.584,17.848,10.421,37.537,15.935,56.647,23.04,3.949,1.468,7.815,3.01,11.211,5.57,6.34,4.778,7.095,13.17,1.87,19.094-5.681,6.441-11.004,13.173-15.487,20.525-3.878,6.359-4.943,13.505-5.693,20.721-.433,4.168-.697,8.353-1.127,12.521-.559,5.41,.621,10.597,1.601,15.866,2.485,13.369,4.707,26.788,6.968,40.198,1.21,7.175,4.717,12.514,11.806,14.946,13.989,4.801,28.3,8.412,42.806,11.256,20.784,4.075,41.935,5.674,62.804,9.212,4.611,.782,9.435,.973,14.028-.514,4.561-1.477,5.561-4.825,2.937-8.855-2.69-4.131-6.854-5.795-11.37-6.572-11.051-1.902-22.136-3.512-33.372-4.014-17.451-.78-34.528-3.948-51.328-8.655-2.935-.822-5.715-2.069-8.398-3.522-9.175-4.969-14.629-12.512-15.204-23.031-.539-9.846-2.224-19.642-2.268-29.453-.062-14.038,1.926-27.823,10.631-39.686,4.548-6.197,7.918-13.042,10.712-20.197,1.269-3.25,4.803-5.296,5.056-9.157,.031-.481,.317-.953,.52-1.413,2.77-6.289,.378-12.312-1.061-18.343-.369-1.545-.663-3.128-1.457-4.656-3.023-5.82-7.13-9.979-13.724-11.802-5.281-1.46-10.327-3.777-15.462-5.757-.699-.269-2.019-.262-1.737-1.364,.386-1.512,1.611-.487,2.304-.253,10.195,3.441,20.314,7.053,30.178,11.411,17.473,7.721,35.635,9.403,54.391,5.649,13.552-2.713,27.233-4.664,40.998-6.008,4.365-.426,8.702-1.143,13.052-1.727-.211,.937-.422,1.873-.632,2.81-14.449,2.365-29.085,3.344-43.509,5.902-7.616,1.35-15.222,2.811-22.976,3.175-14.888,.698-29.146-2.01-42.808-7.93-.338-.227-.723-.437-1.047-.087-.089,.096,.144,.49,.229,.748,2.63,5.132,4.746,10.455,6.144,16.063,2.243,8.997,.241,17.229-4.53,24.912-5.137,8.272-9.724,16.863-14.917,25.111-4.256,6.76-5.152,14.717-6.401,22.497-1.405,8.756,.268,17.342,.892,25.992,.309,4.285,.779,8.563,.936,12.852,.36,9.82,5.396,16.487,13.839,20.884,8.304,4.324,17.491,5.553,26.476,7.589,14.812,3.357,29.927,3.585,44.928,5.06,7.8,.767,15.623,1.696,23.248,3.709,4.67,1.233,8.376,3.793,10.914,7.928,3.384,5.515,1.121,10.505-4.858,12.941-8.12,3.308-16.124,1.624-24.108,.351-14.173-2.258-28.404-4.081-42.602-6.145-17.975-2.613-35.479-7.273-52.812-12.594-6.561-2.014-11.973-5.579-14.751-12.217-.446-1.066-1.282-1.582-2.231-2.074-9.072-4.699-15.119-12.085-18.957-21.413-.479-1.165-.924-2.178-2.189-2.865-17.536-9.528-26.101-25.073-29.132-44.128-2.664-16.749-7.044-33.123-10.471-49.704-2.124-10.275-4.392-20.513-1.026-30.979,1.164-3.62,2.634-7.084,4.844-10.16,1.373-1.912,1.096-2.752-.96-4.011-13.269-8.12-25.134-17.856-33.82-30.968-2.482-3.747-4.517-7.792-6.721-11.72-.556-.991-13.159-12.32-12.939-13.564Zm89.175,190.564l.642,.313c.008-.261,.016-.522,.024-.782-.094-.32-.188-.64-.282-.96-2.957-19.436-6.622-38.771-7.468-58.489-.431-10.061,1.072-19.412,7.59-27.476,5.337-6.603,10.651-13.226,15.995-19.824,.66-.816,1.154-2.476,2.588-1.424,1.556,1.141-.239,1.97-.75,2.672-4.997,6.868-10.776,13.115-15.769,20.004-5.253,7.247-7.067,15.357-6.641,24.036,.425,8.673,.686,17.367,2.336,25.948,2.113,10.991,2.644,22.217,5.021,33.189,2.282,10.536,7.057,19.424,15.582,26.148,1.017,.802,1.952,1.912,3.586,1.787-.092-1.193-.121-2.343-.282-3.473-.265-1.864-.528-3.736-.942-5.571-3.759-16.638-7.533-33.254-8.045-50.43-.32-10.745,1.355-21.033,5.43-30.966,3.81-9.287,11.121-15.59,18.456-21.901,4.746-4.083,4.849-10.863,.283-15.263-2.065-1.99-4.488-3.561-7.136-4.518-11.708-4.232-23.316-8.749-35.209-12.458-.381-.115-.986-1.098-.991,.254-.315,1.52-1.492,2.487-2.379,3.627-11.628,14.944-15.379,31.503-10.44,49.926,1.542,5.751,3.045,11.516,3.937,17.427,1.359,9.003,1.172,18.183,3.092,27.111,1.594,7.415,3.646,14.649,9.984,19.683,.405,.712,1.004,1.178,1.788,1.411Zm-12.859-9.929c.413,.3,.247,1.332,.875,1.076,.359-.146,.3-1.088-.421-1.414-1.437-6.091-3.349-12.068-3.838-18.374-.971-12.531-2.697-24.908-6.036-37.104-5.055-18.467-.988-35.224,10.947-50.114,1.269-1.583,2.331-3.392,4.598-4.535-9.118-3.158-17.408-7.478-25.908-12.112,.395,1.882-.314,3.058-.92,4.272-1.356,2.714-2.634,5.448-3.439,8.403-2.595,9.522-1.065,18.896,.904,28.257,3.742,17.788,8.387,35.377,11.289,53.356,1.664,10.309,5.037,20.099,11.949,28.291Z"/>
  <path class="k" d="M148.11,88.34c-.305,.342-.61,.684-.914,1.026-.531-1.349-1.48-2.306-2.761-2.954-.588-.96-1.099-1.983-1.8-2.852-.319-.395-1.549-.73-1.462-.08,.327,2.433-2.243,2.758-2.859,4.417l-.11,.12c-.591,.33-1.084,.746-1.272,1.433-2.41,2.609-3.67,5.821-4.785,9.109-.492,.75-.983,1.5-1.475,2.25-.525,.778-1.05,1.556-1.574,2.334-.961,1.104-1.921,2.207-2.881,3.311-.964,.934-1.929,1.868-2.893,2.803-.632,.561-1.264,1.122-1.896,1.682-4.059,2.372-7.358,5.951-12.056,8.029,.271-2.092,1.643-2.645,2.647-3.468,3.229-2.644,6.952-4.666,9.81-7.78,1.601-1.114,3.001-2.428,4.073-4.071,.625-.682,1.29-1.332,1.867-2.052,3.151-3.932,4.446-8.886,7.164-13.059,.552-.638,1.105-1.275,1.657-1.913l.951-.964c-.066-1.374,5.619-1.315,.956-3.834-.355-.846-.591-1.771-1.091-2.52-.911-1.365-1.895-1.464-2.684,.179-.834-.787,.097-1.555,.046-2.347-.056-.872-.312-1.137-1.118-.769-.011-.625-.022-1.249-.033-1.874l1.259-.005c.056,.307,.066,.863,.175,.883,3.293,.609,4.023,4.412,6.491,5.526,3.529,1.593,4.635,4.757,6.569,7.438Z"/>
  <path class="l" d="M434.697,250.557c.211-.937,.422-1.873,.632-2.809,1.049-.167,2.099-.333,3.148-.5l.359,.66c.091-.245,.182-.491,.274-.736,1.222-.156,2.443-.313,3.665-.469,.624,1.17,1.067,.993,1.374-.185,3.359-.383,6.717-.766,10.076-1.148,.074,.391,.172,.821,.667,.784,.479-.036,.537-.48,.595-.869,5.038-.334,10.077-.266,15.117-.051,1.023,1.848,2.074,1.805,3.151,.047l2.516,.053c0,.921,0,1.841,0,2.762-2.952,.216-5.883-.015-8.805-.419-2.735-1.077-5.471-1.065-8.209-.007-1.448,.34-2.905,.574-4.4,.413l-.337-.693-.295,.731c-.847,.033-1.694,.065-2.541,.098-.483-.727-.887-.59-1.239,.113-5.25,.742-10.499,1.484-15.749,2.227Z"/>
  <path class="o" d="M174.756,93.851c.103,1.056,1.557,.881,1.718,1.884-.531-.002-.592,.366-.608,.77l-.737,.073,.024,.011-.66-.665,.034,.058c-.469-.629-.698-1.877-1.861-.724-1.767-.662-3.22-2.214-5.338-1.884-.912-.103-1.619-.577-2.226-1.231,2.09-.465,4.045,.064,5.946,.855,.928,.386,1.807,.903,2.829,.318l.8,.616,.078-.079Z"/>
  <path class="n" d="M459.258,247.669c2.737-1.058,5.473-1.07,8.209,.007l-8.209-.007Z"/>
  <path class="n" d="M476.272,248.095c0-.921,0-1.841,0-2.762,.422,.011,.844,.023,1.266,.035-.367,1.279,1.199,1.68,1.257,2.766l-2.522-.039Z"/>
  <path class="k" d="M149.923,92.35c-2.222-.438-1.247-2.372-1.702-3.636,1.028,.997,.556,2.694,1.702,3.636Z"/>
  <path class="k" d="M134.808,71.963c-.563-.391-.612-.926-.43-1.527,.55,.395,.679,.908,.43,1.527Z"/>
  <path class="n" d="M450.446,248.33c.352-.704,.756-.84,1.239-.113l-1.239,.113Z"/>
  <path class="n" d="M454.226,248.119c.098-.244,.197-.487,.295-.731l.337,.693-.632,.037Z"/>
  <path class="l" d="M174.678,93.93l-.8-.616c.471-.06,.982-.172,.8,.616Z"/>
  <path class="o" d="M294.309,202.802s.778-.092,1.201,1.986c-4.285-.642-8.35-2.157-12.16-4.027-13.131-6.443-26.823-11.692-39.696-18.669-3.135-1.699-6.034-3.757-8.674-6.165,.273-.266,.545-.532,.818-.798,7.918,5.534,16.156,10.323,25.356,13.631,6.661,2.395,12.8,6.217,19.239,9.262,2.93,1.385,6.006,2.47,9.05,3.6,.677,.251,4.866,1.18,4.866,1.18Z"/>
  <path class="o" d="M253.27,218.108c-.387-.155-.854-.219-1.148-.479-9.749-8.643-21.606-13.94-32.633-20.55-2.543-1.525-5.511-2.063-8.294-3.098,3.423-.984,6.364,.346,9.159,1.831,7.309,3.883,14.432,8.106,21.292,12.733,3.263,2.201,7.221,3.367,9.827,6.545-.082,1.412,1.53,1.815,1.797,3.019Z"/>
  <path class="k" d="M253.27,218.108c-.267-1.204-1.88-1.607-1.797-3.019,8.999,5.727,18.055,11.358,27.477,16.377,.644,.343,1.901,.551,1.234,1.703-.521,.9-1.348,.148-1.912-.16-8.523-4.649-16.874-9.59-25.003-14.902Z"/>
  <path class="l" d="M295.75,160.644c5.09,1.226,9.778,3.516,14.576,5.514,.642,.267,1.594,.498,1.215,1.454-.49,1.235-1.409,.413-2.079,.148-5.126-2.019-10.233-4.084-15.347-6.134,.311-.717,.974-.849,1.636-.983Z"/>
  <path class="l" d="M275.901,155.96c-5.368-1.367-10.598-3.169-15.802-5.051l1.065-1.014c4.933,1.518,9.865,3.037,14.798,4.555-.021,.503-.041,1.007-.062,1.51Z"/>
  <path class="p" d="M322.554,269.386c-2.255-1.638-2.826-4.131-4.543-5.744-.813-.764-3.391-1.007-2.128-2.51,.894-1.064,2.53,.772,3.498,1.737,1.676,1.669,3.057,3.582,3.173,6.517Z"/>
  <path class="q" d="M235.798,175.128c-.273,.266-.545,.532-.818,.798-2.212-1.501-4.423-3.001-6.635-4.502l.437-.704c2.719,.78,4.935,2.471,7.016,4.407Z"/>
  <path class="q" d="M248.904,147.481c-2.39-.232-4.616-1.043-6.82-1.931,.389-.245,.778-.491,1.167-.736,2.191,.593,4.538,.599,6.579,1.752-.309,.305-.617,.61-.925,.916Z"/>
  <path class="l" d="M292.042,160.879c-2.097-.589-4.198-1.167-6.29-1.775-.498-.145-.996-.369-.876-1.057,.168-.961,.874-.743,1.436-.565,2.471,.781,4.926,1.612,7.387,2.425-.319,.721-.996,.834-1.657,.971Z"/>
  <path class="m" d="M261.165,149.895l-1.065,1.014c-1.899-.201-3.613-.978-5.337-1.721l.692-1.009c1.981,.315,3.921,.763,5.71,1.717Z"/>
  <path class="n" d="M286.677,235.041c2.133,.753,4.267,1.502,6.397,2.264,.576,.206,2.681,.993,2.437,1.819-.261,.883-2.419-.03-2.929-.218-2.017-.744-4.005-1.565-6.003-2.358,.033-.502,.066-1.004,.099-1.506Z"/>
  <path class="j" d="M243.25,144.814c-.389,.245-.778,.491-1.167,.736-2.003-.015-3.365-1.36-4.778-2.756,1.981,.673,3.963,1.347,5.944,2.02Z"/>
  <path class="p" d="M248.904,147.481c.308-.305,.617-.61,.925-.916,1.15,.332,2.3,.665,3.449,.998l.019,1.163c-1.45-.467-3.122-.153-4.394-1.245Z"/>
  <path class="l" d="M316.198,170.632c-1.229-.507-2.461-1.008-3.687-1.523-.693-.291-1.374-.669-.864-1.561,.412-.719,1.074-.369,1.614-.124,1.02,.462,2.015,.977,3.021,1.471-.028,.579-.057,1.158-.085,1.738Z"/>
  <path class="m" d="M275.901,155.96c.021-.503,.041-1.007,.062-1.51,1.453,.122,2.805,.561,4.066,1.287-.103,.453-.205,.906-.307,1.358-1.379-.025-2.632-.47-3.821-1.135Z"/>
  <path class="l" d="M279.722,157.095c.102-.453,.205-.905,.307-1.358,1.198,.309,2.405,.59,3.591,.941,.576,.171,1.276,.385,1.071,1.222-.221,.905-.94,.614-1.485,.441-1.175-.372-2.325-.826-3.485-1.246Z"/>
  <path class="n" d="M285.345,236.054c-.2-.058-.425-.075-.595-.182-.971-.607-6.552-2.105-5.985-3.379,.76-1.707,5.497,1.672,6.635,1.99l-.055,1.57Z"/>
  <path class="n" d="M473.755,245.28c-1.077,1.758-2.128,1.802-3.151-.047,1.05,.016,2.1,.031,3.151,.047Z"/>
  <path class="m" d="M316.198,170.632c.028-.579,.057-1.158,.085-1.738,.801-.058,1.387,.389,1.97,.842-.029,.578-.059,1.155-.088,1.733-.794,.046-1.374-.411-1.967-.837Z"/>
  <path class="m" d="M292.042,160.879c.662-.138,1.338-.25,1.657-.971,.752,.055,1.501,.116,2.05,.736-.662,.134-1.325,.266-1.636,.983-.748-.09-1.517-.121-2.072-.748Z"/>
  <path class="n" d="M493.283,245.95c-.685,1.485-1.315,1.458-1.892-.068,.631,.023,1.261,.045,1.892,.068Z"/>
  <path class="m" d="M253.298,148.727l-.019-1.163c.725,.205,1.451,.41,2.176,.615-.231,.336-.462,.672-.692,1.009-.488-.153-.976-.307-1.465-.46Z"/>
  <path class="k" d="M285.345,236.054l.055-1.57c.567-.139,.934,.182,1.277,.557-.033,.502-.066,1.004-.099,1.506-.411-.164-.822-.329-1.233-.493Z"/>
  <path class="n" d="M455.488,245.285c-.058,.389-.116,.832-.595,.869-.495,.037-.593-.393-.667-.784,.421-.028,.842-.056,1.263-.085Z"/>
  <path class="n" d="M444.149,246.518c-.307,1.178-.749,1.356-1.374,.185,.458-.062,.916-.124,1.374-.185Z"/>
  <path class="n" d="M439.11,247.172c-.091,.245-.182,.491-.274,.736l-.359-.66,.632-.075Z"/>
  <path class="f" d="M134.721,79.487c.789-1.643,1.772-1.544,2.684-.179,.5,.749,.736,1.674,1.091,2.52-1.702,.933-.981,2.47-.956,3.834-.317,.321-.634,.643-.951,.964-1.605-.273-1.766,.703-1.657,1.913-2.718,4.173-4.014,9.126-7.164,13.059-.577,.72-1.243,1.37-1.868,2.052-2.615,.101-3.978,1.452-4.073,4.071-2.858,3.114-6.581,5.136-9.81,7.78-1.004,.823-2.376,1.376-2.647,3.468,4.698-2.078,7.996-5.657,12.056-8.029,1.223,.105,2.23-.034,1.896-1.682,.964-.934,1.929-1.868,2.893-2.802,2.757,.458,2.968-1.298,2.881-3.311,.525-.778,1.05-1.556,1.575-2.334,1.825,.123,1.697-1.032,1.475-2.25,1.115-3.288,2.375-6.5,4.786-9.109,1.06,.086,1.821-.093,1.272-1.433l.11-.12c2.309,.609,3.716-2.492,6.121-1.486,1.281,.648,2.231,1.605,2.761,2.954,.266,2.406,1.019,5.012-2.416,5.905-1.824-.205-1.958,1.272-2.104,2.39-.159,1.22,1.053,1.316,1.917,1.542,.781,.204,1.585,.321,2.379,.476,3.19,1.099,6.82,.126,9.827,2.075,.941,.61,1.852,1.266,2.777,1.901-.424,2.807,1.069,3.701,3.578,3.582,5.232,6.091,6.025,13.184,4.282,20.643-1.792,7.668-4.535,15.009-8.851,21.677-.475-.01-1.043-.2-1.298,.379-.222,.505,.268,.654,.586,.863-1.177,2.287-2.565,4.429-4.323,6.319-2.057-.224-2.406,.984-2.219,2.643-7.266,8.257-16.208,12.524-27.382,11.578-3.307-.28-6.715-.08-9.426-2.53,.512-2.254-.714-2.914-2.667-2.907-.722-.525-1.16-2.181-2.41-.606-1.125-.16-1.655,.394-1.756,1.463-7.226-1.281-14.021-3.656-20.07-7.918,.069-.768,.138-1.536,.207-2.304,2.564,.964,5.109,1.829,6.822-1.388,2.796-3.387,2.231-6.915,.441-10.495,.291-1.783-.554-2.343-2.199-2.041-2.493-.523-4.989-1.02-7.559-.663-.624,.045-1.402-.367-1.774,.461-.209,.466,.281,.629,.586,.835-1.518,3.073-1.469,6.151-.025,9.233-1.173,.099-1.996,.637-2.297,1.83-6.886-5.704-12.617-12.517-18.385-19.28-15.082-17.683-30.276-35.277-44.218-53.894-7.152-9.55-12.66-19.931-15.587-31.582-.336-1.338-.557-2.652-.44-4.022,2.331-1.652,2.315-2.621-.069-4.408C4.916,21.881,16.451,7.961,36.182,4.066c14.04-2.771,27.321,.137,38.986,7.982,17.69,11.897,34.058,25.434,47.311,42.415,3.957,5.071,7.001,10.585,9.921,16.23,.373,.902,.746,1.803,1.119,2.705l.096,1.099c.011,.625,.022,1.249,.033,1.874-.122,.905-.245,1.81-.367,2.715-.558,.9-.809,1.968,.03,2.654,.58,.475,.972-.24,.979-.917l.431-1.337Z"/>
  <path class="g" d="M303.407,135.319c5.153-.165,9.806,1.267,14.225,3.476,9.038,4.517,18.774,6.92,28.68,7.672,8.873,.674,17.52-1.998,25.469-5.976,19.973-9.995,41.258-16.409,62.374-23.292,13.262-4.323,26.912-5.054,40.741-3.943,17.768,1.428,35.559,2.579,53.316,4.131,15.074,1.318,30.188,1.536,45.284,1.732,20.541,.266,38.075,7.777,54.13,20.014,9.539,7.27,17.963,15.379,24.227,25.699,4.739,7.808,10.236,15.079,16.372,21.89,2.924,3.246,5.701,6.823,5.348,11.68-.081,1.12,.161,2.507-1.082,3.08-1.186,.547-1.869-.695-2.657-1.288-8.436-6.357-15.1-14.533-22.495-21.961-2.81-2.823-5.663-5.605-8.555-8.345-1.508-1.429-2.998-2.68-3.907-4.767-.736-1.691-2.909-2.541-4.825-3.177-9.187-3.05-18.73-4.543-28.232-6.018-9.009-1.398-17.868-3.575-26.883-4.846-14.404-2.032-28.757-4.395-43.2-6.183-18.904-2.34-37.87-2.833-56.854-2.282-15.093,.438-30.192,.793-45.28,1.642-15.195,.855-29.882,4.316-44.674,7.385-13.319,2.763-26.747,4.005-40.327,2.22-4.391-.577-8.633-1.768-12.701-3.475-9.59-4.026-18.769-8.862-27.586-14.379-.321-.201-.607-.457-.91-.687Z"/>
  <path class="c" d="M175.866,96.504c.016-.404,.077-.772,.608-.77,2.08,.963,4.111,2.049,5.706,3.707,6.18,6.425,12.246,12.948,17.276,20.359,1.828,2.693,1.567,5.813,2.094,8.757,2.818,15.738-2.806,29.005-12.32,41.055-4.69,5.939-9.896,11.407-15.849,16.1-10.602,8.358-22.532,9.722-35.384,6.793-9.022-2.057-16.383-6.241-20.951-14.57,.272-.271,.544-.542,.816-.813,5.892,5.104,12.275,9.064,20.469,8.888,4.516-.097,8.581-1.636,12.427-3.842,10.663-6.12,18.067-15.033,22.556-26.429,.497-1.262,1.064-2.496,1.598-3.743,.485-.204,.604-.523,.308-.974,.622-1.306,1.822-2.384,1.594-4.026,.444-.914,1.471-1.767,.296-2.85l.236,.097,.229-.113c-.353,.82,.008,1.404,.672,.72,.793-.817,1.589-1.962,.814-3.316,1.646-1.78,1.942-4.073,2.395-6.306,.536-.693,.62-1.518,.769-2.349,1.097-6.136,.754-12.317,.325-18.458-.43-6.155-1.865-12.087-6.054-16.966l-.013-.02-.615-.929Z"/>
  <path class="i" d="M177.109,144.145c1.175,1.082,.148,1.936-.296,2.849-1.368-1.252-1.586,.307-1.851,.922-.427,.993-1.543,2.229,.257,3.104,.296,.45,.178,.77-.308,.974-.109-.664,.709-1.601-.214-1.95-.898-.34-1.127,.717-1.384,1.314-1.859,4.326-3.859,8.568-6.326,12.598-4.611,7.531-11.006,13.066-18.725,17.196-9.809,5.248-18.568,2.729-26.764-3.646-1.45-1.128-3.108-2.18-3.64-4.158l-.027,.017c3.129-.472,6.11,.179,9.044,1.191l.019,.047c.044,1.505,1.372,1.472,2.3,1.918,.128,.177,.301,.253,.518,.228,.953,.321,1.887,.775,2.866,.922,.819,.123,1.502-.219,.686-1.214,.82-.422,1.661-.304,2.507-.102-.803,1.957,.831,1.434,1.602,1.422,3.315-.054,6.487-.899,9.154-2.855,15.374-11.282,26.136-25.437,28.085-45.124,.704-7.108,.869-14.172,.046-21.276-.688-5.936-2.872-11.071-7.329-15.147,2.117-.331,3.57,1.222,5.337,1.884,.594,.31,.943,1.246,1.861,.724l-.034-.057c-.231,.669-.05,.929,.66,.665l-.024-.011c0,.997,.305,1.512,1.352,.857l.013,.019c-1.259,.704-.249,1.409,.073,2,1.299,2.382,2.448,4.821,3.017,7.485,1.985,9.292,1.646,18.647,.709,28.016-.646,1.731-1.335,3.449-1.913,5.203-.174,.528-.702,1.496,.678,1.375,.775,1.354-.021,2.499-.814,3.316-.664,.684-1.025,.1-.672-.72,.5-.19,.862-.479,.63-1.075-.057-.147-.302-.357-.402-.329-.735,.208-.8,.781-.694,1.421Z"/>
  <path class="e" d="M135.771,176.354c-.845-.202-1.687-.32-2.506,.102-1.724-.64-3.448-1.28-5.172-1.919,.006-.369,.011-.739,.017-1.108,12.927-.328,22.028-7.209,29.02-17.326,6.432-9.305,11.172-19.433,12.744-30.758,1.339-9.647-1.526-17.796-9.449-23.849-3.023-2.309-6.422-3.568-10.259-3.138-1.569,.176-2.448-.416-2.71-1.822-.342-1.835,1.364-1.231,2.126-1.421,2.531-.633,5.105-1.168,7.694-1.478,5.424-.649,10.329,2.581,12.801,8.218,1.452,3.31,2.059,6.83,2.274,10.381,.699,11.558,.721,23.115-4.146,33.938-4.633,10.303-11.558,18.929-20.555,25.826-3.494,2.678-7.39,4.342-11.877,4.356Z"/>
  <path class="h" d="M87.826,156.536c-.069,.768-.138,1.536-.207,2.304-2.239-1.119-4.151-2.656-5.798-4.532,.301-1.192,1.124-1.73,2.297-1.83,1.094,1.223,1.469,3.13,3.392,3.567,.058,.184,.164,.347,.317,.49Z"/>
  <path class="h" d="M146.972,99.679c-.794-.155-1.598-.272-2.379-.476-.865-.226-2.076-.321-1.917-1.542,.146-1.118,.28-2.595,2.104-2.39,.188,1.739,1.67,2.835,2.193,4.408Z"/>
  <path class="i" d="M117.861,177.121c-.272,.271-.544,.542-.816,.813-1.489-1.82-2.475-3.869-2.601-6.353,1.139,1.847,2.278,3.693,3.417,5.54Z"/>
  <path class="h" d="M163.154,107.236c-2.509,.119-4.002-.775-3.578-3.582,1.498,.889,2.769,2.005,3.578,3.582Z"/>
  <path class="h" d="M3.122,41.123c2.384,1.787,2.399,2.756,.069,4.408-.568-1.461-.729-2.928-.069-4.408Z"/>
  <path class="h" d="M111.855,165.9c1.953-.007,3.179,.653,2.667,2.907-.764-1.083-2.285-1.473-2.667-2.907Z"/>
  <path class="h" d="M151.331,159.759c-.188-1.659,.162-2.867,2.219-2.643-.52,1.065-1.283,1.926-2.219,2.643Z"/>
  <path class="k" d="M133.52,73.398c-.373-.902-.746-1.803-1.119-2.705,1.652,.373,1.216,1.609,1.119,2.705Z"/>
  <path class="h" d="M107.69,166.758c.101-1.069,.63-1.623,1.756-1.463,.331,1.587-.289,2.032-1.756,1.463Z"/>
  <path class="h" d="M157.873,150.798c-.318-.208-.808-.358-.586-.863,.255-.579,.822-.389,1.298-.379-.237,.414-.474,.828-.712,1.241Z"/>
  <path class="m" d="M128.109,173.428c-.006,.369-.011,.739-.017,1.108l-1.199,.066-.019-.047c-.082-.915,.379-1.238,1.234-1.128Z"/>
  <path class="i" d="M117.857,173.347l-.317-.363,.266-.039c.009,.14,.017,.279,.025,.419l.026-.017Z"/>
  <path class="g" d="M302.951,134.625l-.122,.197-.306-.21c.074-.06,.149-.17,.221-.167,.072,.003,.139,.117,.207,.181Z"/>
  <path class="f" d="M661.691,228.849l.406,.224c-.07,.07-.155,.208-.207,.197-.148-.033-.283-.127-.423-.197l.224-.224Z"/>
  <path class="g" d="M260.768,374.864c-6.338-5.034-8.39-12.268-9.984-19.683-1.92-8.927-1.732-18.108-3.092-27.111-.892-5.911-2.395-11.676-3.937-17.427-4.94-18.423-1.189-34.983,10.44-49.926,.887-1.14,2.063-2.107,2.379-3.627,.33-.085,.66-.169,.991-.254,11.893,3.708,23.502,8.226,35.209,12.458,2.649,.957,5.072,2.529,7.136,4.518,4.566,4.4,4.463,11.18-.283,15.263-7.335,6.311-14.646,12.614-18.456,21.901-4.075,9.932-5.751,20.221-5.43,30.966,.512,17.177,4.285,33.792,8.045,50.43,.415,1.835,.678,3.707,.942,5.571,.161,1.131,.19,2.28,.282,3.473-1.634,.125-2.569-.985-3.586-1.787-8.526-6.723-13.3-15.612-15.582-26.148-2.376-10.972-2.908-22.198-5.021-33.189-1.649-8.581-1.91-17.275-2.336-25.948-.426-8.679,1.388-16.789,6.641-24.036,4.993-6.888,10.772-13.136,15.769-20.004,.511-.702,2.306-1.531,.75-2.672-1.434-1.052-1.928,.609-2.588,1.424-5.344,6.598-10.658,13.221-15.995,19.824-6.518,8.064-8.021,17.414-7.59,27.476,.846,19.718,4.511,39.053,7.468,58.489-.724,.006-1.448,.013-2.172,.019Z"/>
  <path class="b" d="M249.697,366.347c-6.912-8.193-10.285-17.983-11.949-28.291-2.902-17.978-7.547-35.567-11.289-53.356-1.969-9.361-3.499-18.734-.904-28.257,.805-2.955,2.083-5.689,3.439-8.403,.606-1.214,1.315-2.389,.92-4.272,8.5,4.634,16.79,8.954,25.908,12.112-2.267,1.144-3.329,2.953-4.598,4.535-11.935,14.891-16.001,31.647-10.947,50.114,3.338,12.196,5.064,24.573,6.036,37.104,.489,6.306,2.401,12.283,3.838,18.374-.156,.107-.307,.22-.454,.338Z"/>
  <path class="c" d="M260.768,374.864c.724-.006,1.448-.013,2.172-.019,.094,.32,.188,.64,.282,.96-.222,.157-.444,.313-.666,.469-.784-.233-1.383-.699-1.788-1.411Z"/>
  <path class="b" d="M250.151,366.008c.721,.326,.78,1.268,.421,1.414-.628,.256-.462-.776-.875-1.076,.147-.118,.299-.231,.454-.338Z"/>
  <path class="f" d="M324.585,252.364c-.085-.257-.318-.652-.229-.748,.325-.35,.709-.14,1.047,.087l-.819,.661Z"/>
  <path class="b" d="M257.563,256.837c-.33,.085-.66,.169-.991,.254,.005-1.352,.609-.369,.991-.254Z"/>
  <path class="c" d="M263.222,375.806l-.024,.782c-.214-.104-.428-.209-.642-.313,.222-.156,.444-.313,.666-.469Z"/>
  <path class="h" d="M144.434,86.412c-2.405-1.006-3.812,2.095-6.121,1.486,.615-1.66,3.185-1.984,2.858-4.418-.087-.65,1.143-.315,1.462,.08,.702,.869,1.212,1.892,1.8,2.852Z"/>
  <path class="h" d="M121.828,107.72c.095-2.619,1.458-3.97,4.073-4.071-1.071,1.643-2.472,2.957-4.073,4.071Z"/>
  <path class="h" d="M137.541,85.662c-.025-1.364-.747-2.9,.956-3.834,4.663,2.519-1.022,2.46-.956,3.834Z"/>
  <path class="l" d="M133.282,79.086l.367-2.715c.806-.368,1.062-.103,1.118,.769,.051,.792-.88,1.56-.046,2.347l-.431,1.337-1.009-1.738Z"/>
  <path class="h" d="M129.097,103.143c.086,2.014-.124,3.769-2.881,3.311,.96-1.104,1.921-2.208,2.881-3.311Z"/>
  <path class="h" d="M132.147,98.56c.223,1.218,.35,2.373-1.475,2.25,.492-.75,.983-1.5,1.475-2.25Z"/>
  <path class="h" d="M134.932,88.538c-.109-1.209,.052-2.186,1.657-1.913-.552,.638-1.105,1.275-1.657,1.913Z"/>
  <path class="h" d="M123.323,109.257c.334,1.648-.673,1.788-1.896,1.682,.632-.561,1.264-1.122,1.896-1.682Z"/>
  <path class="h" d="M138.204,88.017c.55,1.341-.211,1.52-1.272,1.433,.188-.687,.681-1.104,1.272-1.433Z"/>
  <path class="m" d="M174.527,95.981c-.918,.522-1.267-.414-1.861-.724,1.163-1.152,1.392,.095,1.861,.724Z"/>
  <path class="m" d="M176.481,97.434c-1.047,.655-1.353,.141-1.352-.857l.737-.073,.615,.929Z"/>
  <path class="m" d="M175.152,96.588c-.71,.264-.891,.004-.66-.665,.22,.222,.44,.443,.66,.665Z"/>
  <path class="m" d="M87.51,156.046c-1.922-.437-2.297-2.344-3.392-3.567-1.443-3.082-1.492-6.159,.025-9.233,.396-.432,.792-.864,1.188-1.296,2.57-.357,5.066,.14,7.56,.663,.733,.68,1.466,1.361,2.199,2.042,1.79,3.58,2.355,7.108-.441,10.495-.291-.302-.582-.603-.874-.905,.661-1.988,1.113-4.007,.695-6.11-.571-2.871-2.848-4.68-5.229-4.194-3.566,.727-4.858,2.653-3.952,6.084,.47,1.778,1.12,3.511,2.422,4.898-.067,.375-.134,.749-.201,1.124Z"/>
  <path class="p" d="M87.51,156.046c.067-.375,.134-.749,.201-1.124,2.107,.536,4.301,1.861,6.064-.678,.291,.302,.582,.603,.874,.905-1.713,3.216-4.258,2.352-6.822,1.388-.153-.143-.259-.307-.317-.49Z"/>
  <path class="k" d="M133.282,79.086l1.009,1.738c-.007,.677-.399,1.391-.979,.917-.839-.687-.587-1.754-.03-2.654Z"/>
  <path class="h" d="M95.09,144.653c-.733-.681-1.466-1.361-2.199-2.042,1.645-.301,2.49,.259,2.199,2.042Z"/>
  <path class="h" d="M85.331,141.949c-.396,.432-.792,.864-1.188,1.296-.306-.206-.795-.369-.586-.835,.372-.829,1.15-.416,1.774-.461Z"/>
  <path class="m" d="M180.295,134.954c.936-9.368,1.276-18.724-.709-28.016-.569-2.664-1.719-5.103-3.017-7.485-.322-.591-1.332-1.296-.073-2,4.19,4.879,5.625,10.811,6.055,16.966,.429,6.141,.772,12.322-.325,18.458-.149,.831-.233,1.657-.769,2.349-.387-.091-.774-.182-1.16-.272Z"/>
  <path class="l" d="M180.295,134.954c.387,.091,.773,.181,1.16,.272-.453,2.233-.749,4.526-2.395,6.306-1.38,.12-.852-.848-.678-1.376,.578-1.754,1.267-3.471,1.913-5.203Z"/>
  <path class="m" d="M175.218,151.021c-1.799-.875-.684-2.111-.257-3.104,.265-.615,.483-2.173,1.851-.922,.227,1.642-.972,2.72-1.594,4.026Z"/>
  <path class="m" d="M177.109,144.145c-.106-.641-.041-1.214,.694-1.421,.099-.028,.345,.182,.402,.329,.232,.596-.13,.885-.63,1.075l-.229,.114-.236-.097Z"/>
  <path class="l" d="M126.894,174.602l1.199-.066c1.724,.64,3.449,1.279,5.172,1.919,.815,.996,.132,1.337-.687,1.215-.979-.147-1.913-.601-2.866-.922-.014-.436-.09-.731-.518-.228-.928-.446-2.256-.412-2.3-1.918Z"/>
  <path class="m" d="M129.194,176.52c.428-.503,.504-.208,.518,.228-.217,.025-.39-.051-.518-.228Z"/>
  <path class="e" d="M93.775,154.244c-1.763,2.538-3.957,1.214-6.064,.678-1.302-1.388-1.952-3.12-2.422-4.898-.907-3.431,.385-5.357,3.952-6.084,2.382-.486,4.659,1.323,5.229,4.194,.418,2.103-.034,4.122-.695,6.11Zm-2.672-5.145c-1.44-.237-.121-2.496-1.667-2.647-1.037-.101-1.311,1.112-1.227,2.081,.098,1.13,.651,1.978,1.882,2.032,.703,.031,1.096-.431,1.012-1.467Z"/>
  <path class="k" d="M91.103,149.099c.085,1.035-.309,1.497-1.012,1.467-1.231-.054-1.784-.902-1.882-2.032-.084-.969,.19-2.182,1.227-2.081,1.546,.15,.227,2.409,1.667,2.647Z"/>
</svg>